<?xml version="1.0" encoding="UTF-8" standalone="no"?>
<!DOCTYPE svg PUBLIC "-//W3C//DTD SVG 1.1//EN"
 "http://www.w3.org/Graphics/SVG/1.1/DTD/svg11.dtd">
<!-- Generated by graphviz version 11.0.0 (20240428.1522)
 -->
<!-- Title: ninja Pages: 1 -->
<svg width="4611pt" height="386pt"
 viewBox="0.00 0.00 4611.22 386.00" xmlns="http://www.w3.org/2000/svg" xmlns:xlink="http://www.w3.org/1999/xlink">
<g id="graph0" class="graph" transform="scale(1 1) rotate(0) translate(4 382)">
<title>ninja</title>
<polygon fill="white" stroke="none" points="-4,4 -4,-382 4607.22,-382 4607.22,4 -4,4"/>
<!-- 000002EB1A2FABC0 -->
<g id="node1" class="node">
<title>000002EB1A2FABC0</title>
<polygon fill="none" stroke="black" points="4603.22,-180.62 4549.22,-180.62 4549.22,-161.38 4603.22,-161.38 4603.22,-180.62"/>
<text text-anchor="middle" x="4576.22" y="-167.12" font-family="Times New Roman,serif" font-size="10.00">core</text>
</g>
<!-- 000002EB1A0A2150 -->
<g id="node2" class="node">
<title>000002EB1A0A2150</title>
<polygon fill="none" stroke="black" points="4484.72,-180.62 4430.72,-180.62 4430.72,-161.38 4484.72,-161.38 4484.72,-180.62"/>
<text text-anchor="middle" x="4457.72" y="-167.12" font-family="Times New Roman,serif" font-size="10.00">core.exe</text>
</g>
<!-- 000002EB1A0A2150&#45;&gt;000002EB1A2FABC0 -->
<g id="edge1" class="edge">
<title>000002EB1A0A2150&#45;&gt;000002EB1A2FABC0</title>
<path fill="none" stroke="black" d="M4485.16,-171C4500.65,-171 4520.47,-171 4537.57,-171"/>
<polygon fill="black" stroke="black" points="4537.38,-174.5 4547.38,-171 4537.38,-167.5 4537.38,-174.5"/>
<text text-anchor="middle" x="4516.97" y="-172.75" font-family="Times New Roman,serif" font-size="10.00"> phony</text>
</g>
<!-- 000002EB1A1656F0 -->
<g id="node3" class="node">
<title>000002EB1A1656F0</title>
<ellipse fill="none" stroke="black" cx="4254.01" cy="-171" rx="140.71" ry="13.61"/>
<text text-anchor="middle" x="4254.01" y="-167.12" font-family="Times New Roman,serif" font-size="10.00">CXX_EXECUTABLE_LINKER__core_Debug</text>
</g>
<!-- 000002EB1A1656F0&#45;&gt;000002EB1A0A2150 -->
<g id="edge2" class="edge">
<title>000002EB1A1656F0&#45;&gt;000002EB1A0A2150</title>
<path fill="none" stroke="black" d="M4395.1,-171C4403.55,-171 4411.55,-171 4418.83,-171"/>
<polygon fill="black" stroke="black" points="4418.82,-174.5 4428.82,-171 4418.82,-167.5 4418.82,-174.5"/>
</g>
<!-- 000002EB1A0A2850 -->
<g id="node4" class="node">
<title>000002EB1A0A2850</title>
<polygon fill="none" stroke="black" points="4076.29,-180.62 3913.29,-180.62 3913.29,-161.38 4076.29,-161.38 4076.29,-180.62"/>
<text text-anchor="middle" x="3994.79" y="-167.12" font-family="Times New Roman,serif" font-size="10.00">CMakeFiles/core.dir/core/core.cc.obj</text>
</g>
<!-- 000002EB1A0A2850&#45;&gt;000002EB1A1656F0 -->
<g id="edge3" class="edge">
<title>000002EB1A0A2850&#45;&gt;000002EB1A1656F0</title>
<path fill="none" stroke="black" d="M4076.47,-171C4088.26,-171 4100.67,-171 4113.23,-171"/>
</g>
<!-- 000002EB1A0A2250 -->
<g id="node5" class="node">
<title>000002EB1A0A2250</title>
<polygon fill="none" stroke="black" points="3432.15,-270.62 2889.65,-270.62 2889.65,-251.38 3432.15,-251.38 3432.15,-270.62"/>
<text text-anchor="middle" x="3160.9" y="-257.12" font-family="Times New Roman,serif" font-size="10.00">CMakeFiles/core.dir/C_/Program_Files/Microsoft_Visual_Studio/2022/Community/VC/Tools/MSVC/14.38.33130/modules/std.ixx.obj</text>
</g>
<!-- 000002EB1A0A2250&#45;&gt;000002EB1A1656F0 -->
<g id="edge4" class="edge">
<title>000002EB1A0A2250&#45;&gt;000002EB1A1656F0</title>
<path fill="none" stroke="black" d="M3309.54,-250.9C3349.35,-248.1 3392.4,-245 3432.15,-242 3718.55,-220.37 3790.34,-216.91 4076.29,-190 4103.48,-187.44 4132.99,-184.38 4159.97,-181.47"/>
</g>
<!-- 000002EB1A0A29D0 -->
<g id="node6" class="node">
<title>000002EB1A0A29D0</title>
<polygon fill="none" stroke="black" points="3895.29,-116.62 3731.54,-116.62 3731.54,-97.38 3895.29,-97.38 3895.29,-116.62"/>
<text text-anchor="middle" x="3813.42" y="-103.12" font-family="Times New Roman,serif" font-size="10.00">CMakeFiles/core.dir/core/core.ixx.obj</text>
</g>
<!-- 000002EB1A0A29D0&#45;&gt;000002EB1A1656F0 -->
<g id="edge5" class="edge">
<title>000002EB1A0A29D0&#45;&gt;000002EB1A1656F0</title>
<path fill="none" stroke="black" d="M3883.43,-117.07C3962.19,-128.56 4090.79,-147.33 4173.64,-159.42"/>
</g>
<!-- 000002EB1A0A3410 -->
<g id="node7" class="node">
<title>000002EB1A0A3410</title>
<ellipse fill="none" stroke="black" cx="3581.84" cy="-171" rx="131.7" ry="13.61"/>
<text text-anchor="middle" x="3581.84" y="-167.12" font-family="Times New Roman,serif" font-size="10.00">CXX_COMPILER__core_scanned_Debug</text>
</g>
<!-- 000002EB1A0A3410&#45;&gt;000002EB1A0A2850 -->
<g id="edge6" class="edge">
<title>000002EB1A0A3410&#45;&gt;000002EB1A0A2850</title>
<path fill="none" stroke="black" d="M3714,-171C3775.09,-171 3846.32,-171 3901.61,-171"/>
<polygon fill="black" stroke="black" points="3901.29,-174.5 3911.29,-171 3901.29,-167.5 3901.29,-174.5"/>
</g>
<!-- 000002EB1A0A27D0 -->
<g id="node8" class="node">
<title>000002EB1A0A27D0</title>
<polygon fill="none" stroke="black" points="386.12,-45.62 283.12,-45.62 283.12,-26.38 386.12,-26.38 386.12,-45.62"/>
<text text-anchor="middle" x="334.62" y="-32.12" font-family="Times New Roman,serif" font-size="10.00">D:/rogue/core/core.cc</text>
</g>
<!-- 000002EB1A0A27D0&#45;&gt;000002EB1A0A3410 -->
<g id="edge7" class="edge">
<title>000002EB1A0A27D0&#45;&gt;000002EB1A0A3410</title>
<path fill="none" stroke="black" d="M386.48,-27.24C452.87,-16.58 572.77,0 676.02,0 676.02,0 676.02,0 2808.4,0 3090.37,0 3160.32,-41.04 3432.15,-116 3473.27,-127.34 3519.11,-145.11 3548.88,-157.37"/>
</g>
<!-- 000002EB1A0B17B0 -->
<g id="node22" class="node">
<title>000002EB1A0B17B0</title>
<ellipse fill="none" stroke="black" cx="677.02" cy="-132" rx="89.27" ry="13.61"/>
<text text-anchor="middle" x="677.02" y="-128.12" font-family="Times New Roman,serif" font-size="10.00">CXX_SCAN__core_Debug</text>
</g>
<!-- 000002EB1A0A27D0&#45;&gt;000002EB1A0B17B0 -->
<g id="edge23" class="edge">
<title>000002EB1A0A27D0&#45;&gt;000002EB1A0B17B0</title>
<path fill="none" stroke="black" d="M386.51,-45.97C430.39,-55.02 495.27,-69.44 550.75,-86 582.94,-95.61 618.85,-109.09 643.95,-118.98"/>
</g>
<!-- 000002EB1A0A24D0 -->
<g id="node9" class="node">
<title>000002EB1A0A24D0</title>
<polygon fill="none" stroke="black" points="2424.75,-158.62 2225.75,-158.62 2225.75,-139.38 2424.75,-139.38 2424.75,-158.62"/>
<text text-anchor="middle" x="2325.25" y="-145.12" font-family="Times New Roman,serif" font-size="10.00">CMakeFiles/core.dir/core/core.cc.obj.modmap</text>
</g>
<!-- 000002EB1A0A24D0&#45;&gt;000002EB1A0A3410 -->
<g id="edge8" class="edge">
<title>000002EB1A0A24D0&#45;&gt;000002EB1A0A3410</title>
<path fill="none" stroke="black" d="M2425.22,-150.74C2650.3,-154.68 3200.44,-164.33 3451.78,-168.74"/>
</g>
<!-- 000002EB1A312260 -->
<g id="node10" class="node">
<title>000002EB1A312260</title>
<polygon fill="none" stroke="black" points="2871.65,-130.62 2743.15,-130.62 2743.15,-111.38 2871.65,-111.38 2871.65,-130.62"/>
<text text-anchor="middle" x="2807.4" y="-117.12" font-family="Times New Roman,serif" font-size="10.00">CMakeFiles/core.dir/core.ifc</text>
</g>
<!-- 000002EB1A312260&#45;&gt;000002EB1A0A3410 -->
<g id="edge9" class="edge">
<title>000002EB1A312260&#45;&gt;000002EB1A0A3410</title>
<path fill="none" stroke="black" d="M2871.91,-120.63C2984.91,-120.59 3228.2,-123.35 3432.15,-145 3461.33,-148.1 3493.44,-153.46 3520.33,-158.52"/>
</g>
<!-- 000002EB1A313960 -->
<g id="node11" class="node">
<title>000002EB1A313960</title>
<polygon fill="none" stroke="black" points="2869.4,-244.62 2745.4,-244.62 2745.4,-225.38 2869.4,-225.38 2869.4,-244.62"/>
<text text-anchor="middle" x="2807.4" y="-231.12" font-family="Times New Roman,serif" font-size="10.00">CMakeFiles/core.dir/std.ifc</text>
</g>
<!-- 000002EB1A313960&#45;&gt;000002EB1A0A3410 -->
<g id="edge10" class="edge">
<title>000002EB1A313960&#45;&gt;000002EB1A0A3410</title>
<path fill="none" stroke="black" d="M2869.47,-237.16C2981.66,-240.14 3227.77,-242.02 3432.15,-211 3469.68,-205.3 3511.32,-193.62 3540.97,-184.34"/>
</g>
<!-- 000002EB1A0A2750 -->
<g id="node12" class="node">
<title>000002EB1A0A2750</title>
<polygon fill="none" stroke="black" points="428.5,-233.62 240.75,-233.62 240.75,-214.38 428.5,-214.38 428.5,-233.62"/>
<text text-anchor="middle" x="334.62" y="-220.12" font-family="Times New Roman,serif" font-size="10.00">cmake_object_order_depends_target_core</text>
</g>
<!-- 000002EB1A0A2750&#45;&gt;000002EB1A0A3410 -->
<g id="edge11" class="edge">
<title>000002EB1A0A2750&#45;&gt;000002EB1A0A3410</title>
<path fill="none" stroke="black" stroke-dasharray="1,5" d="M352.29,-234.09C400.54,-262.31 545.22,-340 676.02,-340 676.02,-340 676.02,-340 2808.4,-340 3086.9,-340 3171.91,-379.21 3432.15,-280 3488.97,-258.34 3543.36,-208.79 3567.62,-184.68"/>
</g>
<!-- 000002EB1A0A2750&#45;&gt;000002EB1A0B17B0 -->
<g id="edge24" class="edge">
<title>000002EB1A0A2750&#45;&gt;000002EB1A0B17B0</title>
<path fill="none" stroke="black" stroke-dasharray="1,5" d="M373.03,-213.89C436.15,-196.83 563.56,-162.4 631.3,-144.09"/>
</g>
<!-- 000002EB1A0A34A0 -->
<g id="node24" class="node">
<title>000002EB1A0A34A0</title>
<ellipse fill="none" stroke="black" cx="677.02" cy="-247" rx="89.27" ry="13.61"/>
<text text-anchor="middle" x="677.02" y="-243.12" font-family="Times New Roman,serif" font-size="10.00">CXX_SCAN__core_Debug</text>
</g>
<!-- 000002EB1A0A2750&#45;&gt;000002EB1A0A34A0 -->
<g id="edge28" class="edge">
<title>000002EB1A0A2750&#45;&gt;000002EB1A0A34A0</title>
<path fill="none" stroke="black" stroke-dasharray="1,5" d="M428.64,-230.28C480.51,-233.79 544.51,-238.11 594.42,-241.49"/>
</g>
<!-- 000002EB1A1663E0 -->
<g id="node26" class="node">
<title>000002EB1A1663E0</title>
<ellipse fill="none" stroke="black" cx="677.02" cy="-202" rx="89.27" ry="13.61"/>
<text text-anchor="middle" x="677.02" y="-198.12" font-family="Times New Roman,serif" font-size="10.00">CXX_SCAN__core_Debug</text>
</g>
<!-- 000002EB1A0A2750&#45;&gt;000002EB1A1663E0 -->
<g id="edge31" class="edge">
<title>000002EB1A0A2750&#45;&gt;000002EB1A1663E0</title>
<path fill="none" stroke="black" stroke-dasharray="1,5" d="M428.64,-217.99C480.31,-214.65 544.03,-210.53 593.85,-207.31"/>
</g>
<!-- 000002EB1A166110 -->
<g id="node28" class="node">
<title>000002EB1A166110</title>
<ellipse fill="none" stroke="black" cx="2574.45" cy="-101" rx="131.7" ry="13.61"/>
<text text-anchor="middle" x="2574.45" y="-97.12" font-family="Times New Roman,serif" font-size="10.00">CXX_COMPILER__core_scanned_Debug</text>
</g>
<!-- 000002EB1A0A2750&#45;&gt;000002EB1A166110 -->
<g id="edge36" class="edge">
<title>000002EB1A0A2750&#45;&gt;000002EB1A166110</title>
<path fill="none" stroke="black" stroke-dasharray="1,5" d="M357.18,-213.88C415.97,-186.3 575.52,-111.74 587.75,-109 939.03,-30.19 1847.75,-92.05 2207.75,-95 2286.48,-95.65 2374.74,-97.07 2444.83,-98.37"/>
</g>
<!-- 000002EB1A1662C0 -->
<g id="node29" class="node">
<title>000002EB1A1662C0</title>
<ellipse fill="none" stroke="black" cx="2574.45" cy="-272" rx="131.7" ry="13.61"/>
<text text-anchor="middle" x="2574.45" y="-268.12" font-family="Times New Roman,serif" font-size="10.00">CXX_COMPILER__core_scanned_Debug</text>
</g>
<!-- 000002EB1A0A2750&#45;&gt;000002EB1A1662C0 -->
<g id="edge42" class="edge">
<title>000002EB1A0A2750&#45;&gt;000002EB1A1662C0</title>
<path fill="none" stroke="black" stroke-dasharray="1,5" d="M378.59,-234.12C428.52,-245.34 513.57,-262.82 587.75,-270 1304.42,-339.35 1487.81,-293.83 2207.75,-283 2288.41,-281.79 2379.04,-279.07 2449.9,-276.64"/>
</g>
<!-- 000002EB1A0A1FD0 -->
<g id="node13" class="node">
<title>000002EB1A0A1FD0</title>
<polygon fill="none" stroke="black" points="1984.25,-199.62 1852.75,-199.62 1852.75,-180.38 1984.25,-180.38 1984.25,-199.62"/>
<text text-anchor="middle" x="1918.5" y="-186.12" font-family="Times New Roman,serif" font-size="10.00">CMakeFiles/core.dir/CXX.dd</text>
</g>
<!-- 000002EB1A0A1FD0&#45;&gt;000002EB1A0A3410 -->
<g id="edge12" class="edge">
<title>000002EB1A0A1FD0&#45;&gt;000002EB1A0A3410</title>
<path fill="none" stroke="black" stroke-dasharray="1,5" d="M1984.38,-190.18C2193.94,-190.6 2871.62,-190.71 3432.15,-177 3440.93,-176.79 3450,-176.52 3459.13,-176.23"/>
</g>
<!-- 000002EB1A0A1FD0&#45;&gt;000002EB1A166110 -->
<g id="edge37" class="edge">
<title>000002EB1A0A1FD0&#45;&gt;000002EB1A166110</title>
<path fill="none" stroke="black" stroke-dasharray="1,5" d="M1984.61,-192.67C2081.72,-195.2 2269.7,-194.43 2424.75,-160 2469.08,-150.16 2517.44,-128.82 2546.6,-114.69"/>
</g>
<!-- 000002EB1A0A1FD0&#45;&gt;000002EB1A1662C0 -->
<g id="edge43" class="edge">
<title>000002EB1A0A1FD0&#45;&gt;000002EB1A1662C0</title>
<path fill="none" stroke="black" stroke-dasharray="1,5" d="M1984.65,-192.01C2043.2,-194.3 2131.44,-198.97 2207.75,-208 2211.44,-208.44 2400.27,-241.58 2505.09,-259.99"/>
</g>
<!-- 000002EB1A165810 -->
<g id="node14" class="node">
<title>000002EB1A165810</title>
<ellipse fill="none" stroke="black" cx="1495.02" cy="-190" rx="97.23" ry="13.61"/>
<text text-anchor="middle" x="1495.02" y="-186.12" font-family="Times New Roman,serif" font-size="10.00">CXX_DYNDEP__core_Debug</text>
</g>
<!-- 000002EB1A165810&#45;&gt;000002EB1A0A24D0 -->
<g id="edge15" class="edge">
<title>000002EB1A165810&#45;&gt;000002EB1A0A24D0</title>
<path fill="none" stroke="black" d="M1559.56,-179.49C1581.57,-176.23 1606.44,-172.98 1629.25,-171 1835.28,-153.1 2076.79,-149.31 2214.03,-148.75"/>
<polygon fill="black" stroke="black" points="2213.85,-152.25 2223.84,-148.72 2213.83,-145.25 2213.85,-152.25"/>
</g>
<!-- 000002EB1A165810&#45;&gt;000002EB1A0A1FD0 -->
<g id="edge13" class="edge">
<title>000002EB1A165810&#45;&gt;000002EB1A0A1FD0</title>
<path fill="none" stroke="black" d="M1592.72,-190C1668.11,-190 1771.38,-190 1841.06,-190"/>
<polygon fill="black" stroke="black" points="1840.87,-193.5 1850.87,-190 1840.86,-186.5 1840.87,-193.5"/>
</g>
<!-- 000002EB1A0A2A50 -->
<g id="node15" class="node">
<title>000002EB1A0A2A50</title>
<polygon fill="none" stroke="black" points="1968.12,-236.62 1868.87,-236.62 1868.87,-217.38 1968.12,-217.38 1968.12,-236.62"/>
<text text-anchor="middle" x="1918.5" y="-223.12" font-family="Times New Roman,serif" font-size="10.00">000002EB1A0A2A50</text>
</g>
<!-- 000002EB1A165810&#45;&gt;000002EB1A0A2A50 -->
<g id="edge14" class="edge">
<title>000002EB1A165810&#45;&gt;000002EB1A0A2A50</title>
<path fill="none" stroke="black" d="M1561.29,-200.36C1582.88,-203.51 1607.05,-206.73 1629.25,-209 1707.81,-217.04 1798.81,-222 1857.21,-224.63"/>
<polygon fill="black" stroke="black" points="1856.78,-228.11 1866.93,-225.06 1857.09,-221.12 1856.78,-228.11"/>
</g>
<!-- 000002EB1A0A28D0 -->
<g id="node16" class="node">
<title>000002EB1A0A28D0</title>
<polygon fill="none" stroke="black" points="2207.75,-273.62 1629.25,-273.62 1629.25,-254.38 2207.75,-254.38 2207.75,-273.62"/>
<text text-anchor="middle" x="1918.5" y="-260.12" font-family="Times New Roman,serif" font-size="10.00">CMakeFiles/core.dir/C_/Program_Files/Microsoft_Visual_Studio/2022/Community/VC/Tools/MSVC/14.38.33130/modules/std.ixx.obj.modmap</text>
</g>
<!-- 000002EB1A165810&#45;&gt;000002EB1A0A28D0 -->
<g id="edge16" class="edge">
<title>000002EB1A165810&#45;&gt;000002EB1A0A28D0</title>
<path fill="none" stroke="black" d="M1520.71,-203.36C1546.84,-216.77 1589.67,-236.73 1629.25,-246 1638.74,-248.22 1648.45,-250.21 1658.29,-251.99"/>
<polygon fill="black" stroke="black" points="1657.51,-255.41 1667.96,-253.65 1658.7,-248.51 1657.51,-255.41"/>
</g>
<!-- 000002EB1A0A2C50 -->
<g id="node17" class="node">
<title>000002EB1A0A2C50</title>
<polygon fill="none" stroke="black" points="2018.37,-123.62 1818.62,-123.62 1818.62,-104.38 2018.37,-104.38 2018.37,-123.62"/>
<text text-anchor="middle" x="1918.5" y="-110.12" font-family="Times New Roman,serif" font-size="10.00">CMakeFiles/core.dir/core/core.ixx.obj.modmap</text>
</g>
<!-- 000002EB1A165810&#45;&gt;000002EB1A0A2C50 -->
<g id="edge17" class="edge">
<title>000002EB1A165810&#45;&gt;000002EB1A0A2C50</title>
<path fill="none" stroke="black" d="M1515.99,-176.35C1537.99,-162.13 1574.93,-140.62 1610.25,-131 1673.93,-113.65 1747.7,-109.09 1806.99,-109.01"/>
<polygon fill="black" stroke="black" points="1806.74,-112.51 1816.75,-109.04 1806.77,-105.51 1806.74,-112.51"/>
</g>
<!-- 000002EB1A0A28D0&#45;&gt;000002EB1A1662C0 -->
<g id="edge41" class="edge">
<title>000002EB1A0A28D0&#45;&gt;000002EB1A1662C0</title>
<path fill="none" stroke="black" d="M2208.23,-267.53C2290.35,-268.54 2375.73,-269.58 2443.27,-270.41"/>
</g>
<!-- 000002EB1A0A2C50&#45;&gt;000002EB1A166110 -->
<g id="edge35" class="edge">
<title>000002EB1A0A2C50&#45;&gt;000002EB1A166110</title>
<path fill="none" stroke="black" d="M2018.82,-112.03C2132.71,-109.76 2319.76,-106.04 2444.73,-103.56"/>
</g>
<!-- 000002EB1A0A2450 -->
<g id="node18" class="node">
<title>000002EB1A0A2450</title>
<polygon fill="none" stroke="black" points="1171.04,-141.62 993.04,-141.62 993.04,-122.38 1171.04,-122.38 1171.04,-141.62"/>
<text text-anchor="middle" x="1082.04" y="-128.12" font-family="Times New Roman,serif" font-size="10.00">CMakeFiles/core.dir/core/core.cc.obj.ddi</text>
</g>
<!-- 000002EB1A0A2450&#45;&gt;000002EB1A165810 -->
<g id="edge18" class="edge">
<title>000002EB1A0A2450&#45;&gt;000002EB1A165810</title>
<path fill="none" stroke="black" d="M1171.54,-132.63C1226.41,-134.28 1298.14,-138.72 1360.79,-150 1394.66,-156.1 1432.11,-167.8 1458.65,-176.98"/>
</g>
<!-- 000002EB1A0A2BD0 -->
<g id="node19" class="node">
<title>000002EB1A0A2BD0</title>
<polygon fill="none" stroke="black" points="1360.79,-253.62 803.29,-253.62 803.29,-234.38 1360.79,-234.38 1360.79,-253.62"/>
<text text-anchor="middle" x="1082.04" y="-240.12" font-family="Times New Roman,serif" font-size="10.00">CMakeFiles/core.dir/C_/Program_Files/Microsoft_Visual_Studio/2022/Community/VC/Tools/MSVC/14.38.33130/modules/std.ixx.obj.ddi</text>
</g>
<!-- 000002EB1A0A2BD0&#45;&gt;000002EB1A165810 -->
<g id="edge19" class="edge">
<title>000002EB1A0A2BD0&#45;&gt;000002EB1A165810</title>
<path fill="none" stroke="black" d="M1292.82,-233.89C1315.83,-231.52 1338.85,-228.6 1360.79,-225 1392.42,-219.81 1427.44,-210.47 1453.63,-202.74"/>
</g>
<!-- 000002EB1A0A20D0 -->
<g id="node20" class="node">
<title>000002EB1A0A20D0</title>
<polygon fill="none" stroke="black" points="1171.42,-215.62 992.67,-215.62 992.67,-196.38 1171.42,-196.38 1171.42,-215.62"/>
<text text-anchor="middle" x="1082.04" y="-202.12" font-family="Times New Roman,serif" font-size="10.00">CMakeFiles/core.dir/core/core.ixx.obj.ddi</text>
</g>
<!-- 000002EB1A0A20D0&#45;&gt;000002EB1A165810 -->
<g id="edge20" class="edge">
<title>000002EB1A0A20D0&#45;&gt;000002EB1A165810</title>
<path fill="none" stroke="black" d="M1171.71,-202.55C1239.32,-199.92 1332.19,-196.3 1400.87,-193.63"/>
</g>
<!-- 000002EB1A0A23D0 -->
<g id="node21" class="node">
<title>000002EB1A0A23D0</title>
<polygon fill="none" stroke="black" points="1205.92,-178.62 958.17,-178.62 958.17,-159.38 1205.92,-159.38 1205.92,-178.62"/>
<text text-anchor="middle" x="1082.04" y="-165.12" font-family="Times New Roman,serif" font-size="10.00">D:/rogue/build/CMakeFiles/core.dir/CXXDependInfo.json</text>
</g>
<!-- 000002EB1A0A23D0&#45;&gt;000002EB1A165810 -->
<g id="edge21" class="edge">
<title>000002EB1A0A23D0&#45;&gt;000002EB1A165810</title>
<path fill="none" stroke="black" d="M1206.35,-175.3C1269.48,-178.53 1345,-182.39 1402.82,-185.34"/>
</g>
<!-- 000002EB1A0B17B0&#45;&gt;000002EB1A0A2450 -->
<g id="edge22" class="edge">
<title>000002EB1A0B17B0&#45;&gt;000002EB1A0A2450</title>
<path fill="none" stroke="black" d="M766.47,-132C829.99,-132 915.67,-132 981.57,-132"/>
<polygon fill="black" stroke="black" points="981.29,-135.5 991.29,-132 981.29,-128.5 981.29,-135.5"/>
</g>
<!-- 000002EB1A0A2950 -->
<g id="node23" class="node">
<title>000002EB1A0A2950</title>
<polygon fill="none" stroke="black" points="54,-233.62 0,-233.62 0,-214.38 54,-214.38 54,-233.62"/>
<text text-anchor="middle" x="27" y="-220.12" font-family="Times New Roman,serif" font-size="10.00">.</text>
</g>
<!-- 000002EB1A0A2950&#45;&gt;000002EB1A0A2750 -->
<g id="edge25" class="edge">
<title>000002EB1A0A2950&#45;&gt;000002EB1A0A2750</title>
<path fill="none" stroke="black" d="M54.32,-224C92.9,-224 166.95,-224 229.12,-224"/>
<polygon fill="black" stroke="black" points="229.06,-227.5 239.06,-224 229.06,-220.5 229.06,-227.5"/>
<text text-anchor="middle" x="86.25" y="-225.75" font-family="Times New Roman,serif" font-size="10.00"> phony</text>
</g>
<!-- 000002EB1A0A34A0&#45;&gt;000002EB1A0A2BD0 -->
<g id="edge26" class="edge">
<title>000002EB1A0A34A0&#45;&gt;000002EB1A0A2BD0</title>
<path fill="none" stroke="black" d="M766.47,-246.34C774.44,-246.28 782.77,-246.22 791.36,-246.16"/>
<polygon fill="black" stroke="black" points="791.31,-249.66 801.28,-246.08 791.26,-242.66 791.31,-249.66"/>
</g>
<!-- 000002EB1A0A2050 -->
<g id="node25" class="node">
<title>000002EB1A0A2050</title>
<polygon fill="none" stroke="black" points="550.75,-360.62 118.5,-360.62 118.5,-341.38 550.75,-341.38 550.75,-360.62"/>
<text text-anchor="middle" x="334.62" y="-347.12" font-family="Times New Roman,serif" font-size="10.00">C:/Program Files/Microsoft Visual Studio/2022/Community/VC/Tools/MSVC/14.38.33130/modules/std.ixx</text>
</g>
<!-- 000002EB1A0A2050&#45;&gt;000002EB1A0A34A0 -->
<g id="edge27" class="edge">
<title>000002EB1A0A2050&#45;&gt;000002EB1A0A34A0</title>
<path fill="none" stroke="black" d="M368.57,-340.93C431.14,-321.82 566.99,-280.31 635.2,-259.47"/>
</g>
<!-- 000002EB1A0A2050&#45;&gt;000002EB1A1662C0 -->
<g id="edge40" class="edge">
<title>000002EB1A0A2050&#45;&gt;000002EB1A1662C0</title>
<path fill="none" stroke="black" d="M416.98,-361.09C485.85,-368.76 587.25,-378 676.02,-378 676.02,-378 676.02,-378 1919.5,-378 2149.24,-378 2418.6,-313.46 2525.88,-285.1"/>
</g>
<!-- 000002EB1A1663E0&#45;&gt;000002EB1A0A20D0 -->
<g id="edge29" class="edge">
<title>000002EB1A1663E0&#45;&gt;000002EB1A0A20D0</title>
<path fill="none" stroke="black" d="M766.47,-202.88C829.88,-203.51 915.38,-204.36 981.23,-205.01"/>
<polygon fill="black" stroke="black" points="980.91,-208.51 990.94,-205.11 980.98,-201.51 980.91,-208.51"/>
</g>
<!-- 000002EB1A0A2B50 -->
<g id="node27" class="node">
<title>000002EB1A0A2B50</title>
<polygon fill="none" stroke="black" points="386.5,-114.62 282.75,-114.62 282.75,-95.38 386.5,-95.38 386.5,-114.62"/>
<text text-anchor="middle" x="334.62" y="-101.12" font-family="Times New Roman,serif" font-size="10.00">D:/rogue/core/core.ixx</text>
</g>
<!-- 000002EB1A0A2B50&#45;&gt;000002EB1A1663E0 -->
<g id="edge30" class="edge">
<title>000002EB1A0A2B50&#45;&gt;000002EB1A1663E0</title>
<path fill="none" stroke="black" d="M386.61,-113.16C434.55,-121.52 507.98,-136.11 569.75,-156 597.5,-164.93 627.91,-178.51 649.06,-188.59"/>
</g>
<!-- 000002EB1A0A2B50&#45;&gt;000002EB1A166110 -->
<g id="edge34" class="edge">
<title>000002EB1A0A2B50&#45;&gt;000002EB1A166110</title>
<path fill="none" stroke="black" d="M376.46,-94.9C453.52,-76.18 617.82,-38 676.02,-38 676.02,-38 676.02,-38 1919.5,-38 2144.31,-38 2202.53,-27.96 2424.75,-62 2461.68,-67.66 2502.69,-78.79 2532.27,-87.72"/>
</g>
<!-- 000002EB1A166110&#45;&gt;000002EB1A0A29D0 -->
<g id="edge32" class="edge">
<title>000002EB1A166110&#45;&gt;000002EB1A0A29D0</title>
<path fill="none" stroke="black" d="M2706.31,-101.39C2757.84,-101.55 2817.52,-101.76 2871.65,-102 3182.59,-103.35 3551.33,-105.46 3719.95,-106.45"/>
<polygon fill="black" stroke="black" points="3719.72,-109.95 3729.74,-106.51 3719.76,-102.95 3719.72,-109.95"/>
</g>
<!-- 000002EB1A166110&#45;&gt;000002EB1A312260 -->
<g id="edge33" class="edge">
<title>000002EB1A166110&#45;&gt;000002EB1A312260</title>
<path fill="none" stroke="black" d="M2677.42,-109.83C2695.66,-111.41 2714.35,-113.03 2731.65,-114.53"/>
<polygon fill="black" stroke="black" points="2731.02,-117.99 2741.28,-115.36 2731.62,-111.01 2731.02,-117.99"/>
</g>
<!-- 000002EB1A1662C0&#45;&gt;000002EB1A0A2250 -->
<g id="edge38" class="edge">
<title>000002EB1A1662C0&#45;&gt;000002EB1A0A2250</title>
<path fill="none" stroke="black" d="M2704.43,-269.57C2755.86,-268.6 2817.21,-267.45 2877.97,-266.31"/>
<polygon fill="black" stroke="black" points="2877.86,-269.81 2887.8,-266.12 2877.73,-262.81 2877.86,-269.81"/>
</g>
<!-- 000002EB1A1662C0&#45;&gt;000002EB1A313960 -->
<g id="edge39" class="edge">
<title>000002EB1A1662C0&#45;&gt;000002EB1A313960</title>
<path fill="none" stroke="black" d="M2648.2,-260.34C2675.63,-255.95 2706.8,-250.96 2734.17,-246.57"/>
<polygon fill="black" stroke="black" points="2734.44,-250.07 2743.76,-245.04 2733.33,-243.16 2734.44,-250.07"/>
</g>
</g>
</svg>
